<?xml version="1.0" encoding="utf-8"?>
<!-- Generator: Adobe Illustrator 26.0.1, SVG Export Plug-In . SVG Version: 6.00 Build 0)  -->
<svg version="1.1" id="Layer_1" xmlns="http://www.w3.org/2000/svg" xmlns:xlink="http://www.w3.org/1999/xlink" x="0px" y="0px"
	 viewBox="0 0 1080 168" style="enable-background:new 0 0 1080 168;" xml:space="preserve">
<g>
	<g>
		<path d="M87.73,58.91c-0.38-4.68-2.12-8.33-5.23-10.96c-3.11-2.62-7.83-3.93-14.15-3.93c-4.03,0-7.32,0.48-9.87,1.44
			c-2.55,0.96-4.44,2.26-5.65,3.9c-1.22,1.64-1.85,3.51-1.9,5.62c-0.09,1.73,0.22,3.29,0.95,4.67c0.73,1.38,1.88,2.62,3.48,3.72
			c1.59,1.1,3.63,2.1,6.11,2.98c2.48,0.89,5.43,1.69,8.85,2.39l11.8,2.53c7.96,1.69,14.77,3.91,20.44,6.67
			c5.66,2.76,10.3,6,13.91,9.73c3.6,3.72,6.26,7.9,7.97,12.54c1.71,4.64,2.59,9.69,2.63,15.17c-0.05,9.46-2.41,17.46-7.09,24.02
			c-4.68,6.56-11.37,11.54-20.05,14.96c-8.69,3.42-19.11,5.13-31.29,5.13c-12.5,0-23.4-1.85-32.69-5.55
			c-9.29-3.7-16.5-9.4-21.63-17.1c-5.13-7.7-7.71-17.57-7.76-29.6h37.08c0.23,4.4,1.33,8.1,3.3,11.1c1.97,3,4.74,5.27,8.32,6.81
			c3.58,1.54,7.85,2.32,12.82,2.32c4.17,0,7.66-0.51,10.46-1.54c2.81-1.03,4.94-2.46,6.39-4.28c1.45-1.83,2.2-3.91,2.25-6.25
			c-0.05-2.2-0.76-4.13-2.14-5.79c-1.38-1.66-3.64-3.16-6.78-4.5c-3.14-1.33-7.37-2.59-12.71-3.76l-14.33-3.09
			c-12.74-2.76-22.77-7.38-30.09-13.87c-7.33-6.48-10.97-15.35-10.92-26.58c-0.05-9.13,2.4-17.12,7.34-23.98
			c4.94-6.86,11.8-12.21,20.58-16.05C46.9,13.92,56.97,12,68.35,12c11.61,0,21.65,1.94,30.13,5.83c8.47,3.89,15.02,9.35,19.63,16.4
			c4.61,7.05,6.94,15.27,6.99,24.69H87.73z"/>
		<path d="M179.31,157.79h-42.14l47.47-143.83h53.37l47.47,143.83h-42.14L211.9,53.58h-1.12L179.31,157.79z M171.44,101.05h79.22
			v29.22h-79.22V101.05z"/>
		<path d="M299.26,157.79V13.97h101.13v31.46h-62.08v24.72h55.9v31.46h-55.9v56.18H299.26z"/>
		<path d="M414.71,157.79V13.97h103.66v31.46h-64.61v24.72h59.27v31.46h-59.27v24.72h64.33v31.46H414.71z"/>
		<path d="M537.75,157.79V13.97h62.08c10.68,0,20.02,2.11,28.02,6.32c8.01,4.21,14.23,10.14,18.68,17.77
			c4.45,7.63,6.67,16.55,6.67,26.76c0,10.3-2.28,19.22-6.85,26.76c-4.56,7.54-10.96,13.34-19.17,17.42
			c-8.22,4.07-17.8,6.11-28.76,6.11h-37.08V84.76h29.21c4.59,0,8.51-0.81,11.76-2.42c3.25-1.62,5.76-3.92,7.51-6.92
			c1.76-3,2.63-6.53,2.63-10.6c0-4.12-0.88-7.64-2.63-10.57c-1.76-2.93-4.26-5.17-7.51-6.74c-3.26-1.57-7.18-2.35-11.76-2.35H576.8
			v112.65H537.75z"/>
		<path d="M704.9,157.79h-42.14l47.47-143.83h53.37l47.47,143.83h-42.14L737.48,53.58h-1.12L704.9,157.79z M697.03,101.05h79.22
			v29.22h-79.22V101.05z"/>
		<path d="M902.38,58.91c-0.38-4.68-2.12-8.33-5.23-10.96c-3.11-2.62-7.83-3.93-14.15-3.93c-4.03,0-7.32,0.48-9.87,1.44
			c-2.55,0.96-4.44,2.26-5.65,3.9c-1.22,1.64-1.85,3.51-1.9,5.62c-0.09,1.73,0.22,3.29,0.95,4.67c0.73,1.38,1.88,2.62,3.48,3.72
			c1.59,1.1,3.63,2.1,6.11,2.98c2.48,0.89,5.43,1.69,8.85,2.39l11.8,2.53c7.96,1.69,14.77,3.91,20.44,6.67
			c5.66,2.76,10.3,6,13.91,9.73c3.6,3.72,6.26,7.9,7.97,12.54c1.71,4.64,2.59,9.69,2.63,15.17c-0.05,9.46-2.41,17.46-7.09,24.02
			c-4.68,6.56-11.37,11.54-20.05,14.96c-8.68,3.42-19.11,5.13-31.29,5.13c-12.5,0-23.4-1.85-32.69-5.55
			c-9.29-3.7-16.5-9.4-21.63-17.1c-5.13-7.7-7.71-17.57-7.76-29.6h37.08c0.23,4.4,1.33,8.1,3.3,11.1c1.97,3,4.74,5.27,8.32,6.81
			c3.58,1.54,7.85,2.32,12.82,2.32c4.17,0,7.66-0.51,10.46-1.54c2.81-1.03,4.94-2.46,6.39-4.28c1.45-1.83,2.2-3.91,2.25-6.25
			c-0.05-2.2-0.76-4.13-2.14-5.79c-1.38-1.66-3.64-3.16-6.78-4.5c-3.14-1.33-7.37-2.59-12.71-3.76l-14.33-3.09
			c-12.74-2.76-22.77-7.38-30.09-13.87c-7.33-6.48-10.97-15.35-10.92-26.58c-0.05-9.13,2.4-17.12,7.34-23.98
			c4.94-6.86,11.8-12.21,20.58-16.05c8.78-3.84,18.86-5.76,30.23-5.76c11.61,0,21.65,1.94,30.13,5.83
			c8.47,3.89,15.02,9.35,19.63,16.4c4.61,7.05,6.94,15.27,6.99,24.69H902.38z"/>
		<path d="M1034.12,58.91c-0.38-4.68-2.12-8.33-5.23-10.96c-3.11-2.62-7.83-3.93-14.15-3.93c-4.03,0-7.32,0.48-9.87,1.44
			c-2.55,0.96-4.44,2.26-5.65,3.9c-1.22,1.64-1.85,3.51-1.9,5.62c-0.09,1.73,0.22,3.29,0.95,4.67c0.73,1.38,1.88,2.62,3.48,3.72
			c1.59,1.1,3.63,2.1,6.11,2.98c2.48,0.89,5.43,1.69,8.85,2.39l11.8,2.53c7.96,1.69,14.77,3.91,20.44,6.67
			c5.66,2.76,10.3,6,13.91,9.73c3.6,3.72,6.26,7.9,7.97,12.54c1.71,4.64,2.59,9.69,2.63,15.17c-0.05,9.46-2.41,17.46-7.09,24.02
			c-4.68,6.56-11.37,11.54-20.05,14.96c-8.68,3.42-19.11,5.13-31.29,5.13c-12.5,0-23.4-1.85-32.69-5.55
			c-9.29-3.7-16.5-9.4-21.63-17.1c-5.13-7.7-7.71-17.57-7.76-29.6h37.08c0.23,4.4,1.33,8.1,3.3,11.1c1.97,3,4.74,5.27,8.32,6.81
			c3.58,1.54,7.85,2.32,12.82,2.32c4.17,0,7.66-0.51,10.46-1.54c2.81-1.03,4.94-2.46,6.39-4.28c1.45-1.83,2.2-3.91,2.25-6.25
			c-0.05-2.2-0.76-4.13-2.14-5.79c-1.38-1.66-3.64-3.16-6.78-4.5c-3.14-1.33-7.37-2.59-12.71-3.76l-14.33-3.09
			c-12.74-2.76-22.77-7.38-30.09-13.87c-7.33-6.48-10.97-15.35-10.92-26.58c-0.05-9.13,2.4-17.12,7.34-23.98
			c4.94-6.86,11.8-12.21,20.58-16.05c8.78-3.84,18.86-5.76,30.23-5.76c11.61,0,21.65,1.94,30.13,5.83
			c8.47,3.89,15.02,9.35,19.63,16.4c4.61,7.05,6.94,15.27,6.99,24.69H1034.12z"/>
	</g>
</g>
</svg>
