<?xml version="1.0" encoding="utf-8"?>
<!-- Generator: Adobe Illustrator 26.0.1, SVG Export Plug-In . SVG Version: 6.00 Build 0)  -->
<svg version="1.1" id="Layer_1" xmlns="http://www.w3.org/2000/svg" xmlns:xlink="http://www.w3.org/1999/xlink" x="0px" y="0px"
	 viewBox="0 0 1080 1080" style="enable-background:new 0 0 1080 1080;" xml:space="preserve">
<style type="text/css">
	.st0{fill:#263238;}
	.st1{fill:none;stroke:#EE3D86;stroke-width:16;stroke-miterlimit:10;}
	.st2{fill:#EE3D86;}
	.st3{fill:#BB8DA7;}
	.st4{fill:#E26397;}
	.st5{fill:#BDB4BF;}
</style>
<path class="st0" d="M438.55,248.57c19.49-50.57,68.47-86.6,125.82-86.6c57.35,0,106.33,36.03,125.82,86.6
	c27.5,5.34,54.64,12.43,81.24,21.2C758.09,167.36,670.36,88,564.37,88s-193.72,79.36-207.06,181.76
	C383.92,260.99,411.06,253.91,438.55,248.57z"/>
<path class="st1" d="M868.15,357.08c-188.63-106.08-418.93-106.08-607.56,0l0,0v132.71h49.31V386.74
	c78.84-39.28,166.23-59.91,254.47-59.91c88.24,0,175.63,20.63,254.47,59.91v301.48c0,140.32-114.15,254.47-254.47,254.47
	c-140.32,0-254.47-114.15-254.47-254.47v-93.6H260.6v93.6C260.6,855.99,396.6,992,564.37,992h0
	c167.77,0,303.78-136.01,303.78-303.78V357.08L868.15,357.08z"/>
<path class="st0" d="M658.22,812.36c-26.14,19.81-58.59,31.72-93.85,31.72c-85.94,0-155.85-69.92-155.85-155.85V452
	c50.05-17.43,103.34-26.56,155.85-26.56c52.51,0,105.8,9.13,155.85,26.56v236.22c0,6.55-0.54,12.96-1.32,19.3h49.7
	c0.6-6.36,0.94-12.79,0.94-19.3V418.25c-64.64-27.62-134.97-42.11-205.16-42.11c-70.19,0-140.52,14.49-205.16,42.11v269.98
	c0,113.13,92.04,205.16,205.16,205.16c66.5,0,125.69-31.83,163.2-81.03H658.22z"/>
<path class="st2" d="M666.65,631.32c3.14,7.93,10.84,13.55,19.88,13.55c11.83,0,21.42-9.59,21.42-21.42s-9.59-21.42-21.42-21.42
	c-9.05,0-16.74,5.62-19.88,13.55h-25.19c-0.85-8.42-3.1-16.42-6.43-23.83l21.86-12.62c6.68,5.29,16.16,6.32,24,1.79
	c10.25-5.92,13.76-19.02,7.84-29.27c-5.92-10.25-19.02-13.76-29.27-7.84c-7.83,4.52-11.69,13.24-10.44,21.68l-21.88,12.63
	c-4.85-6.7-10.73-12.58-17.43-17.43l12.63-21.88c8.44,1.24,17.16-2.61,21.68-10.45c5.92-10.25,2.4-23.35-7.84-29.27
	c-10.25-5.92-23.35-2.41-29.27,7.84c-4.52,7.83-3.5,17.31,1.79,24l-12.62,21.86c-7.41-3.33-15.4-5.58-23.83-6.43v-25.19
	c7.93-3.14,13.55-10.84,13.55-19.89c0-11.83-9.59-21.42-21.42-21.42c-11.83,0-21.42,9.59-21.42,21.42c0,9.05,5.62,16.74,13.55,19.89
	v25.19c-8.42,0.85-16.42,3.1-23.83,6.43l-12.62-21.86c5.29-6.69,6.32-16.16,1.79-24c-5.92-10.25-19.02-13.76-29.27-7.84
	c-10.25,5.92-13.76,19.02-7.84,29.27c4.52,7.83,13.24,11.69,21.68,10.45l12.63,21.88c-6.7,4.85-12.58,10.73-17.43,17.43
	l-21.88-12.63c1.24-8.44-2.61-17.16-10.44-21.68c-10.25-5.92-23.35-2.41-29.27,7.84c-5.92,10.25-2.41,23.35,7.84,29.27
	c7.83,4.52,17.31,3.5,24-1.79l21.86,12.62c-3.33,7.41-5.58,15.4-6.43,23.83H462.1c-3.14-7.93-10.84-13.55-19.89-13.55
	c-11.83,0-21.42,9.59-21.42,21.42s9.59,21.42,21.42,21.42c9.05,0,16.74-5.62,19.89-13.55h25.19c0.85,8.42,3.1,16.42,6.43,23.83
	l-21.86,12.62c-6.69-5.29-16.16-6.32-24-1.79c-10.25,5.92-13.76,19.02-7.84,29.27c5.92,10.25,19.02,13.76,29.27,7.84
	c7.83-4.52,11.69-13.24,10.44-21.68l21.88-12.63c4.85,6.7,10.73,12.58,17.43,17.43l-12.63,21.88c-8.44-1.24-17.16,2.61-21.68,10.45
	c-5.92,10.25-2.4,23.35,7.84,29.27c10.25,5.92,23.35,2.41,29.27-7.84c4.52-7.83,3.5-17.31-1.79-24l12.62-21.86
	c7.41,3.33,15.4,5.58,23.83,6.43v25.19c-7.93,3.14-13.55,10.84-13.55,19.88c0,11.83,9.59,21.42,21.42,21.42
	c11.83,0,21.42-9.59,21.42-21.42c0-9.04-5.62-16.74-13.55-19.88v-25.19c8.42-0.85,16.42-3.1,23.83-6.43l12.62,21.86
	c-5.29,6.69-6.32,16.16-1.79,24c5.92,10.25,19.02,13.76,29.27,7.84c10.25-5.92,13.76-19.02,7.84-29.27
	c-4.52-7.83-13.24-11.69-21.68-10.44L609.7,686.2c6.7-4.85,12.58-10.73,17.43-17.43l21.88,12.63c-1.24,8.44,2.61,17.16,10.44,21.68
	c10.25,5.92,23.35,2.41,29.27-7.84c5.92-10.25,2.4-23.35-7.84-29.27c-7.83-4.52-17.31-3.5-24,1.79l-21.86-12.62
	c3.33-7.41,5.58-15.4,6.43-23.83H666.65z"/>
<rect x="-509" y="130" class="st3" width="340" height="288"/>
<rect x="-456" y="661" class="st4" width="212" height="224"/>
<rect x="-475" y="-34" class="st5" width="355" height="171"/>
<rect x="-409" y="499" class="st5" width="354" height="113"/>
</svg>
